<svg width="90" height="90" viewBox="0 0 23.813 23.813" xml:space="preserve" xmlns:xlink="http://www.w3.org/1999/xlink" xmlns="http://www.w3.org/2000/svg"><defs><linearGradient id="a" x1="0" y1=".5" x2="1" y2=".5"><stop offset="5%" stop-color="#ff4500"/><stop offset="95%" stop-color="orange"/></linearGradient><linearGradient xlink:href="#a" id="c" gradientUnits="userSpaceOnUse" gradientTransform="scale(1.49847 .66735)" x1="0" y1="568.441" x2="960.979" y2="568.441"/><linearGradient xlink:href="#a" id="d" gradientUnits="userSpaceOnUse" gradientTransform="scale(1.70945 .58498)" x1="0" y1="775.431" x2="842.374" y2="775.431"/><linearGradient xlink:href="#a" id="e" gradientUnits="userSpaceOnUse" gradientTransform="scale(2.02 .49505)" x1="0" y1="1057.564" x2="712.871" y2="1057.564"/><linearGradient xlink:href="#a" id="f" gradientUnits="userSpaceOnUse" gradientTransform="scale(2.60728 .38354)" x1="0" y1="1548.944" x2="552.3" y2="1548.944"/><clipPath clipPathUnits="userSpaceOnUse" id="b"><ellipse cx="825.443" cy="-19.127" fill="url(#fireGrad)" style="display:inline;fill:#000;fill-opacity:1;stroke-width:7.15498" rx="419.147" ry="247.33" transform="rotate(30)"/></clipPath></defs><circle cx="106.098" cy="201.613" r="11.906" fill="url(#fireGrad)" style="display:inline;fill:#fddfbc;fill-opacity:1;stroke-width:.264583" transform="translate(-94.192 -189.706)"/><g transform="matrix(.0246 -.02407 .0142 .04169 -11.541 12.827)" style="display:inline" clip-path="url(#b)" stroke-width="0" fill="url(#a)"><path d="M0 700V105c99.76 18.603 199.522 37.206 296 27s189.675-49.22 284-65 189.78-8.325 289 16 202.206 65.522 298 72 184.397-21.76 273-50v595z" fill-opacity=".265" class="transition-all duration-300 ease-in-out delay-150 path-0" style="display:inline;fill:url(#c)"/><path d="M0 700V245c75.856-3.053 151.713-6.105 242-11s195.005-11.632 288-5 174.268 26.632 291 21 268.923-36.895 378-42 175.038 15.947 241 37v455z" fill-opacity=".4" class="transition-all duration-300 ease-in-out delay-150 path-1" style="fill:url(#d)"/><path d="M0 700V385c96.622 20.22 193.244 40.44 298 41s217.646-18.54 306-20 152.172 14.722 237 3 190.665-51.35 294-60 204.168 13.675 305 36v315z" fill-opacity=".53" class="transition-all duration-300 ease-in-out delay-150 path-2" style="fill:url(#e)"/><path d="M0 700V525c79.522 18.02 159.043 36.038 265 32s238.35-30.134 345-26 187.56 38.498 269 31 163.412-56.856 257-70c93.589-13.144 198.794 9.928 304 33v175z" class="transition-all duration-300 ease-in-out delay-150 path-3" style="display:inline;fill:url(#f)"/></g></svg>